<svg width="1569" height="1569" viewBox="0 0 1569 1569" fill="none" xmlns="http://www.w3.org/2000/svg">
<circle cx="784.096" cy="784.096" r="637.534" transform="rotate(15.4194 784.096 784.096)" fill="#747474" fill-opacity="0.03"/>
<path fill-rule="evenodd" clip-rule="evenodd" d="M831.927 351.288L701.91 265.046L865.452 257.281C871.443 253.695 878.834 252.469 886.096 254.472L926.935 265.736C934.83 267.914 940.898 273.444 944.028 280.365L944.462 278.792L1081.62 369.772L923.638 377.273L922.292 382.155L1054.09 469.582L896.11 477.082L894.764 481.964L1026.57 569.391L868.582 576.891L867.235 581.773L999.038 669.2L847.791 676.38L1009.79 740.6L1009.59 739.862L1132.05 712.329L1014.41 752.795L1014.65 753.541L829.35 719.134L818.374 758.93L1138.15 784.589L1140.02 794.093L1093.93 800.45L1062.88 1246.68L1030.73 809.167L818.527 838.436L857.669 1320.39L770.767 888.064C765.9 889.733 760.496 890.003 755.162 888.532L714.323 877.268C710.306 876.16 706.761 874.184 703.836 871.598L420.804 1215.72L684.419 797.296L508.619 671.931L268.283 1036.47L457.193 635.26L414.839 605.056L428.556 605.473L726.295 734.28L737.422 693.934L572.362 628.271L570.918 629.246L569.632 627.185L569.336 627.067L569.489 626.956L504.484 522.756L580.442 619.041L580.663 618.881L744.8 647.701L619.325 564.472L775.17 557.073L776.871 550.905L646.854 464.663L802.698 457.264L804.399 451.096L674.382 364.853L830.227 357.455L831.927 351.288Z" fill="#363636" fill-opacity="0.08"/>
<rect x="878.542" y="268.323" width="7.68114" height="522.317" rx="3.84057" transform="rotate(15.4194 878.542 268.323)" fill="#C9C9C9" fill-opacity="0.05"/>
<rect x="885.948" y="270.367" width="7.68114" height="522.317" rx="3.84057" transform="rotate(15.4194 885.948 270.367)" fill="#C9C9C9" fill-opacity="0.05"/>
<rect x="900.757" y="274.45" width="7.68114" height="522.317" rx="3.84057" transform="rotate(15.4194 900.757 274.45)" fill="#C9C9C9" fill-opacity="0.05"/>
<rect x="908.161" y="276.493" width="7.68114" height="522.317" rx="3.84057" transform="rotate(15.4194 908.161 276.493)" fill="#C9C9C9" fill-opacity="0.05"/>
<rect x="915.565" y="278.535" width="7.68114" height="522.317" rx="3.84057" transform="rotate(15.4194 915.565 278.535)" fill="#C9C9C9" fill-opacity="0.05"/>
</svg>
