<svg width="1969" height="832" viewBox="0 0 1969 832" fill="none" xmlns="http://www.w3.org/2000/svg">
<path fill-rule="evenodd" clip-rule="evenodd" d="M0 288.886L99.7572 199.555L190.487 115.267L69.3402 0L169.314 0.79385L294.987 116.097L195.23 205.428L104.5 289.716L225.441 404.787L226.314 404.794L351.987 520.097L252.23 609.428L161.5 693.716L282.647 808.983L182.673 808.189L57 692.886L156.757 603.555L247.487 519.267L126.546 404.196L125.673 404.189L0 288.886ZM124.138 290.613L223.896 201.282L314.625 116.994L193.478 1.72686L293.452 2.52071L419.125 117.824L319.367 207.155L228.638 291.443L349.579 406.514L350.452 406.521L476.125 521.824L376.367 611.155L285.638 695.443L406.785 810.71L306.811 809.916L181.138 694.613L280.896 605.282L371.625 520.994L250.685 405.923L249.811 405.916L124.138 290.613ZM348.038 203.004L248.276 292.34L373.949 407.643L374.822 407.65L495.763 522.721L405.038 607.004L305.276 696.34L430.949 811.643L530.922 812.437L409.776 697.17L500.5 612.887L600.263 523.551L474.589 408.248L473.716 408.241L352.776 293.17L443.5 208.887L543.263 119.551L417.589 4.24783L317.616 3.45398L438.763 118.721L348.038 203.004ZM372.414 294.067L472.172 204.735L562.901 120.448L441.754 5.18085L541.728 5.9747L667.401 121.278L567.642 210.61L476.914 294.897L597.854 409.968L598.728 409.975L724.401 525.278L624.642 614.61L533.914 698.897L655.06 814.164L555.087 813.37L429.414 698.067L529.172 608.735L619.901 524.448L498.96 409.377L498.087 409.37L372.414 294.067ZM596.311 206.461L496.551 295.794L622.225 411.097L623.098 411.104L744.038 526.175L653.311 610.461L553.551 699.794L679.225 815.097L779.198 815.891L658.052 700.624L748.778 616.338L848.538 527.005L722.865 411.702L721.992 411.695L601.052 296.624L691.778 212.338L791.538 123.005L665.865 7.70181L565.892 6.90796L687.038 122.175L596.311 206.461ZM620.689 297.521L720.444 208.192L811.176 123.902L690.03 8.63483L790.003 9.42868L915.676 124.732L815.921 214.061L725.19 298.351L846.13 413.422L847.003 413.429L972.676 528.732L872.921 618.061L782.19 702.351L903.336 817.618L803.363 816.824L677.69 701.521L777.444 612.192L868.176 527.902L747.236 412.831L746.363 412.824L620.689 297.521ZM844.581 209.92L744.827 299.248L870.5 414.551L871.373 414.558L992.314 529.629L901.581 613.92L801.827 703.248L927.5 818.551L1027.47 819.345L906.327 704.078L997.06 619.787L1096.81 530.459L971.141 415.156L970.268 415.149L849.327 300.078L940.06 215.787L1039.81 126.459L914.141 11.1558L814.167 10.3619L935.314 125.629L844.581 209.92ZM868.965 300.975L968.721 211.645L1059.45 127.356L938.305 12.0888L1038.28 12.8827L1163.95 128.186L1064.2 217.516L973.465 301.805L1094.41 416.876L1095.28 416.883L1220.95 532.186L1121.2 621.516L1030.47 705.805L1151.61 821.072L1051.64 820.278L925.965 704.975L1025.72 615.645L1116.45 531.356L995.511 416.285L994.638 416.278L868.965 300.975ZM1092.86 213.371L993.103 302.702L1118.78 418.005L1119.65 418.012L1240.59 533.083L1149.86 617.371L1050.1 706.702L1175.78 822.005L1275.75 822.799L1154.6 707.532L1245.33 623.244L1345.09 533.913L1219.42 418.61L1218.54 418.603L1097.6 303.532L1188.33 219.244L1288.09 129.913L1162.42 14.6098L1062.44 13.8159L1183.59 129.083L1092.86 213.371ZM1117.24 304.429L1217 215.096L1307.73 130.81L1186.58 15.5428L1286.55 16.3366L1412.23 131.64L1312.47 220.972L1221.74 305.259L1342.68 420.33L1343.55 420.337L1469.23 535.64L1369.47 624.972L1278.74 709.259L1399.89 824.526L1299.91 823.732L1174.24 708.429L1274 619.096L1364.73 534.81L1243.79 419.739L1242.91 419.732L1117.24 304.429ZM1341.14 216.824L1241.38 306.156L1367.05 421.459L1367.93 421.466L1488.87 536.537L1398.14 620.823L1298.38 710.156L1424.05 825.459L1524.03 826.253L1402.88 710.986L1493.61 626.699L1593.37 537.367L1467.69 422.064L1466.82 422.057L1345.88 306.986L1436.61 222.699L1536.37 133.367L1410.69 18.0636L1310.72 17.2698L1431.87 132.537L1341.14 216.824ZM1365.52 307.883L1465.27 218.556L1556 134.264L1434.86 18.9968L1534.83 19.7906L1660.5 135.094L1560.75 224.421L1470.02 308.713L1590.96 423.784L1591.83 423.791L1717.5 539.094L1617.75 628.421L1527.02 712.713L1648.16 827.98L1548.19 827.186L1422.52 711.883L1522.27 622.556L1613 538.264L1492.06 423.193L1491.19 423.186L1365.52 307.883ZM1590.59 220.279L1490.84 309.61L1616.51 424.913L1617.38 424.92L1738.32 539.991L1647.59 624.279L1547.84 713.61L1673.51 828.913L1773.48 829.707L1652.34 714.44L1743.07 630.152L1842.82 540.821L1717.15 425.518L1716.28 425.511L1595.34 310.44L1686.07 226.152L1785.82 136.821L1660.15 21.5177L1560.18 20.7239L1681.32 135.991L1590.59 220.279ZM1616.16 311.337L1715.91 222.005L1806.64 137.718L1685.5 22.4507L1785.47 23.2446L1911.14 138.548L1811.39 227.879L1720.66 312.167L1841.6 427.238L1842.47 427.245L1968.14 542.548L1868.39 631.879L1777.66 716.167L1898.8 831.434L1798.83 830.64L1673.16 715.337L1772.91 626.005L1863.64 541.718L1742.7 426.647L1741.83 426.64L1616.16 311.337Z" fill="url(#paint0_linear_305_458)"/>
<defs>
<linearGradient id="paint0_linear_305_458" x1="1833.9" y1="836.808" x2="1837.11" y2="433.091" gradientUnits="userSpaceOnUse">
<stop stop-color="white" stop-opacity="0"/>
<stop offset="1" stop-color="white" stop-opacity="0.19"/>
</linearGradient>
</defs>
</svg>
